<?xml version="1.0" standalone="no"?>
<!DOCTYPE svg PUBLIC "-//W3C//DTD SVG 20010904//EN"
 "http://www.w3.org/TR/2001/REC-SVG-20010904/DTD/svg10.dtd">
<svg version="1.0" xmlns="http://www.w3.org/2000/svg"
 width="251.000000pt" height="209.000000pt" viewBox="0 0 251.000000 209.000000"
 preserveAspectRatio="xMidYMid meet">
<metadata>
Created by potrace 1.10, written by Peter Selinger 2001-2011
</metadata>
<g transform="translate(0.000000,209.000000) scale(0.100000,-0.100000)"
fill="#000000" stroke="none">
<path d="M1158 2043 c7 -3 16 -2 19 1 4 3 -2 6 -13 5 -11 0 -14 -3 -6 -6z"/>
<path d="M1208 2043 c7 -3 16 -2 19 1 4 3 -2 6 -13 5 -11 0 -14 -3 -6 -6z"/>
<path d="M1267 2043 c18 -2 50 -2 70 0 21 2 7 4 -32 4 -38 0 -55 -2 -38 -4z"/>
<path d="M1049 1985 c-108 -15 -221 -44 -319 -82 -82 -32 -254 -124 -299 -160
-94 -77 -171 -145 -171 -152 0 -4 -22 -35 -48 -68 -27 -33 -65 -93 -84 -134
-172 -353 -79 -753 237 -1019 385 -324 981 -402 1470 -192 100 43 238 125 293
175 110 99 144 133 155 152 6 12 33 53 58 91 67 101 98 181 114 290 19 122 19
166 0 290 -17 111 -67 230 -136 321 -21 29 -39 56 -39 61 0 9 -68 75 -155 150
-64 55 -192 132 -275 166 -36 15 -72 30 -81 35 -8 5 -58 20 -110 34 -202 55
-410 69 -610 42z m404 -50 c178 -27 403 -101 495 -163 15 -11 53 -35 84 -55
66 -42 227 -198 250 -242 9 -16 32 -59 51 -95 130 -238 130 -462 0 -700 -19
-36 -42 -78 -51 -95 -24 -45 -181 -198 -248 -241 -33 -21 -75 -48 -94 -60 -53
-34 -192 -92 -289 -119 -315 -88 -655 -68 -947 56 -88 37 -248 128 -269 152
-5 7 -40 38 -76 69 -103 89 -204 248 -248 392 -30 97 -30 295 0 392 42 135
148 306 236 381 31 27 67 58 81 70 13 12 47 37 76 54 28 17 62 39 76 48 14 9
54 29 90 44 36 16 72 32 81 37 30 16 203 60 294 74 122 19 284 19 408 1z m742
-315 c3 -5 1 -10 -4 -10 -6 0 -11 5 -11 10 0 6 2 10 4 10 3 0 8 -4 11 -10z
m-1974 -1052 c11 -21 11 -22 -4 -9 -10 7 -17 17 -17 22 0 15 9 10 21 -13z
m2020 -81 c-10 -9 -11 -8 -5 6 3 10 9 15 12 12 3 -3 0 -11 -7 -18z m-191 -161
c0 -2 -8 -10 -17 -17 -16 -13 -17 -12 -4 4 13 16 21 21 21 13z"/>
<path d="M958 1873 c7 -3 16 -2 19 1 4 3 -2 6 -13 5 -11 0 -14 -3 -6 -6z"/>
<path d="M1538 1873 c7 -3 16 -2 19 1 4 3 -2 6 -13 5 -11 0 -14 -3 -6 -6z"/>
<path d="M1568 1563 c7 -3 16 -2 19 1 4 3 -2 6 -13 5 -11 0 -14 -3 -6 -6z"/>
<path d="M848 1506 c-59 -21 -86 -43 -93 -76 -17 -75 23 -122 119 -142 68 -15
153 2 196 39 26 21 30 32 30 73 0 44 -4 52 -32 74 -60 44 -149 57 -220 32z
m22 -26 c0 -5 22 -10 48 -10 56 0 135 -36 140 -63 5 -26 -25 -55 -69 -67 -26
-7 -36 -15 -33 -24 17 -44 -142 -7 -172 40 -25 37 -14 85 25 111 36 24 61 30
61 13z"/>
<path d="M813 1444 c-41 -29 -26 -82 27 -99 14 -4 27 -11 30 -15 3 -4 19 -11
36 -14 l31 -7 -5 53 c-2 30 -11 61 -21 70 -24 25 -72 31 -98 12z m61 -36 c13
-17 16 -18 12 -5 -3 10 -2 15 4 12 13 -8 13 -75 -1 -75 -5 0 -8 4 -5 9 5 8
-21 21 -49 25 -16 2 -18 38 -3 47 19 13 24 11 42 -13z"/>
<path d="M1484 1509 c-40 -11 -94 -72 -94 -104 0 -15 14 -41 33 -61 66 -72
211 -72 284 1 43 43 43 77 0 120 -50 50 -141 68 -223 44z m36 -29 c0 -5 19
-10 43 -10 46 0 104 -25 121 -52 14 -24 -16 -55 -68 -70 -23 -6 -47 -18 -53
-26 -12 -14 -19 -14 -68 2 -87 27 -110 83 -56 137 28 28 81 41 81 19z m180
-36 c0 -2 -9 0 -20 6 -11 6 -20 13 -20 16 0 2 9 0 20 -6 11 -6 20 -13 20 -16z"/>
<path d="M1458 1456 c-12 -9 -18 -27 -18 -54 0 -34 3 -41 25 -46 14 -4 30 -4
35 -1 6 4 10 2 10 -3 0 -5 11 -9 25 -9 14 0 25 4 25 9 0 16 -31 82 -47 100
-19 21 -32 22 -55 4z m62 -66 c0 -11 -40 -24 -48 -15 -10 10 -8 49 3 57 10 8
45 -26 45 -42z"/>
<path d="M888 1233 c6 -2 18 -2 25 0 6 3 1 5 -13 5 -14 0 -19 -2 -12 -5z"/>
<path d="M938 1233 c7 -3 16 -2 19 1 4 3 -2 6 -13 5 -11 0 -14 -3 -6 -6z"/>
<path d="M1160 1105 c-29 -22 -31 -25 -13 -25 26 0 87 49 62 50 -8 0 -30 -11
-49 -25z"/>
<path d="M422 1111 c-7 -4 -12 -12 -10 -17 3 -10 -52 -94 -85 -131 -11 -13
-18 -26 -14 -29 14 -15 51 12 84 62 20 30 38 52 40 50 3 -2 -3 -15 -12 -29
-16 -25 -13 -71 7 -83 15 -10 56 35 104 113 38 64 41 73 24 73 -20 0 -63 -50
-75 -87 -12 -42 -22 -24 -17 32 4 49 2 55 -14 55 -11 0 -25 -4 -32 -9z"/>
<path d="M880 1110 c0 -6 -30 -47 -66 -91 -36 -45 -63 -83 -60 -86 9 -9 44 17
79 58 l35 41 -1 -49 c-2 -41 1 -48 17 -48 11 0 26 14 37 34 10 19 25 42 34 50
13 13 14 12 3 -15 -13 -35 -6 -61 18 -71 30 -11 45 9 48 67 2 30 10 70 20 88
16 31 16 32 -4 32 -34 0 -56 -16 -87 -64 l-29 -44 4 54 c4 53 4 54 -22 54 -14
0 -26 -5 -26 -10z m21 -101 l-11 -34 5 33 c3 20 1 31 -5 27 -11 -7 -14 8 -3
19 15 15 24 -13 14 -45z m93 30 c-3 -5 -10 -7 -15 -3 -5 3 -7 10 -3 15 3 5 10
7 15 3 5 -3 7 -10 3 -15z"/>
<path d="M1442 1108 c-18 -18 -15 -28 9 -28 17 0 19 -3 10 -13 -13 -16 -71
-124 -71 -133 0 -3 10 -4 22 -2 14 2 35 25 63 71 22 37 51 74 63 83 12 8 20
20 17 25 -9 13 -99 11 -113 -3z"/>
<path d="M1692 1108 c-16 -16 -15 -38 1 -38 17 0 37 20 37 37 0 16 -22 17 -38
1z"/>
<path d="M1878 1078 c-18 -18 -33 -37 -34 -43 0 -5 -8 -24 -17 -42 -22 -42
-22 -63 2 -63 32 0 50 11 44 26 -7 20 16 74 33 74 18 0 29 21 15 30 -9 5 -8
10 4 20 8 7 15 16 15 21 0 19 -31 7 -62 -23z"/>
<path d="M592 1039 c-42 -28 -68 -75 -51 -95 27 -33 108 -5 135 47 19 37 8 55
-29 46 -19 -5 -23 -12 -19 -35 2 -18 -2 -33 -12 -41 -23 -19 -31 -7 -20 31 7
23 20 38 44 50 32 16 33 18 10 18 -14 0 -40 -10 -58 -21z"/>
<path d="M1085 1019 c-46 -43 -57 -75 -29 -86 27 -10 49 11 46 41 -2 16 4 36
14 47 25 28 39 23 20 -6 -9 -14 -14 -30 -11 -35 3 -6 2 -10 -3 -10 -6 0 -8 -9
-5 -20 11 -42 56 -17 66 37 2 10 7 26 11 35 11 25 -1 38 -35 38 -21 0 -43 -12
-74 -41z"/>
<path d="M1232 1024 c-33 -33 -35 -37 -19 -49 15 -11 14 -13 -8 -23 -14 -6
-25 -18 -25 -27 0 -25 63 -19 94 10 31 29 33 41 6 50 -22 7 -25 22 -9 45 9 12
10 11 6 -7 -6 -29 13 -30 37 -4 22 24 13 41 -21 41 -15 0 -39 -14 -61 -36z m8
-89 c-7 -9 -15 -13 -18 -10 -3 2 1 11 8 20 7 9 15 13 18 10 3 -2 -1 -11 -8
-20z"/>
<path d="M1568 1043 c-15 -18 -58 -97 -58 -108 0 -3 9 -5 20 -5 13 0 28 12 38
30 9 16 22 30 28 30 7 0 14 8 17 18 2 9 8 25 12 35 6 13 2 17 -17 17 -14 0
-32 -8 -40 -17z"/>
<path d="M1640 1018 c-32 -44 -40 -88 -15 -88 15 0 75 94 75 118 0 26 -31 10
-60 -30z"/>
<path d="M1732 1024 c-33 -33 -35 -37 -19 -49 15 -11 14 -13 -8 -23 -38 -17
-32 -42 10 -42 24 0 41 8 60 27 30 33 31 40 5 48 -22 7 -25 22 -9 45 9 12 10
11 6 -7 -7 -30 17 -30 37 -1 36 51 -31 53 -82 2z m8 -89 c-7 -9 -15 -13 -18
-10 -3 2 1 11 8 20 7 9 15 13 18 10 3 -2 -1 -11 -8 -20z"/>
<path d="M1973 1045 c-30 -21 -66 -82 -59 -100 7 -20 29 -19 78 6 32 16 40 18
35 6 -12 -33 71 -37 99 -6 l19 22 -29 -7 c-28 -7 -28 -7 12 36 22 23 38 46 36
50 -10 15 -81 9 -95 -9 -13 -15 -11 -16 14 -11 15 3 27 2 27 -2 0 -14 -66 -55
-90 -56 -14 0 -34 -4 -45 -8 -11 -4 -3 2 17 13 39 22 63 54 53 71 -9 15 -48
12 -72 -5z m12 -45 c-10 -11 -20 -18 -23 -15 -3 3 3 14 13 25 10 11 20 18 23
15 3 -3 -3 -14 -13 -25z"/>
<path d="M2235 1048 c-36 -20 -85 -72 -85 -90 0 -27 29 -34 62 -15 25 14 28
14 28 1 0 -27 43 -12 47 16 6 32 8 41 17 62 16 35 -25 51 -69 26z m21 -33 c-9
-14 -14 -29 -12 -34 3 -5 -3 -11 -14 -14 -26 -7 -26 13 1 47 26 33 47 34 25 1z"/>
<path d="M131 1034 c0 -11 3 -14 6 -6 3 7 2 16 -1 19 -3 4 -6 -2 -5 -13z"/>
<path d="M1767 873 c-14 -13 -7 -23 16 -23 13 0 31 -6 40 -13 16 -11 16 -16 1
-67 -9 -30 -24 -64 -34 -75 -9 -11 -19 -25 -21 -31 -5 -14 -84 -84 -96 -84
-15 0 -63 -55 -63 -72 0 -21 -20 -37 -59 -44 -17 -4 -34 -11 -37 -15 -3 -5
-15 -9 -26 -9 -12 0 -29 -6 -37 -14 -22 -20 -155 -40 -271 -40 -90 -1 -97 1
-140 29 -25 17 -66 41 -91 53 -44 22 -77 59 -167 188 -27 40 -42 144 -20 144
17 0 58 41 58 58 0 7 -5 12 -10 12 -24 0 -134 -64 -166 -95 -56 -57 -38 -75
28 -30 45 30 48 31 48 3 0 -32 57 -146 91 -182 16 -17 35 -43 41 -57 12 -26
87 -79 112 -79 7 0 21 -9 30 -19 10 -11 40 -29 68 -41 42 -18 64 -21 136 -17
116 6 225 23 270 43 62 27 76 32 102 40 30 8 60 37 60 59 0 8 17 27 38 42 76
56 122 97 122 108 0 6 11 22 24 34 14 14 31 49 42 87 11 44 21 63 30 60 35
-13 84 -17 84 -7 0 15 -28 25 -115 45 -80 18 -79 18 -88 9z m-1037 -73 c0 -5
-4 -10 -10 -10 -5 0 -10 5 -10 10 0 6 5 10 10 10 6 0 10 -4 10 -10z"/>
<path d="M2341 804 c0 -11 3 -14 6 -6 3 7 2 16 -1 19 -3 4 -6 -2 -5 -13z"/>
<path d="M721 634 c0 -11 3 -14 6 -6 3 7 2 16 -1 19 -3 4 -6 -2 -5 -13z"/>
<path d="M1671 494 c0 -11 3 -14 6 -6 3 7 2 16 -1 19 -3 4 -6 -2 -5 -13z"/>
<path d="M1333 333 c9 -2 25 -2 35 0 9 3 1 5 -18 5 -19 0 -27 -2 -17 -5z"/>
<path d="M1848 283 c7 -3 16 -2 19 1 4 3 -2 6 -13 5 -11 0 -14 -3 -6 -6z"/>
</g>
</svg>
